<?xml version="1.0" standalone="no"?>
<!DOCTYPE svg PUBLIC "-//W3C//DTD SVG 20010904//EN"
 "http://www.w3.org/TR/2001/REC-SVG-20010904/DTD/svg10.dtd">
<svg version="1.0" xmlns="http://www.w3.org/2000/svg"
 width="1280.000000pt" height="1280.000000pt" viewBox="0 0 1280.000000 1280.000000"
 preserveAspectRatio="xMidYMid meet">
<metadata>
Created by potrace 1.15, written by Peter Selinger 2001-2017
</metadata>
<g transform="translate(0.000000,1280.000000) scale(0.100000,-0.100000)"
fill="#000000" stroke="none">
<path d="M4020 8200 l0 -3690 -1339 0 c-737 0 -1342 -3 -1345 -8 -4 -8 5006
-3645 5029 -3650 7 -2 571 401 1252 895 681 494 1813 1314 2515 1823 702 509
1274 928 1272 932 -3 5 -610 8 -1350 8 l-1344 0 0 3690 0 3690 -2345 0 -2345
0 0 -3690z"/>
</g>
</svg>
